<?xml version="1.0" encoding="UTF-8" ?>
<!DOCTYPE svg PUBLIC "-//W3C//DTD SVG 1.1//EN" "http://www.w3.org/Graphics/SVG/1.1/DTD/svg11.dtd">
<svg width="105pt" height="101pt" viewBox="0 0 105 101" version="1.1" xmlns="http://www.w3.org/2000/svg">
<path fill="#ffffff" d=" M 0.00 0.00 L 105.00 0.00 L 105.00 14.25 C 97.32 14.27 89.64 14.31 81.96 14.33 C 81.83 16.98 81.84 19.64 81.99 22.30 C 85.58 22.28 89.17 22.27 92.76 22.27 C 87.57 28.26 82.05 33.95 76.85 39.93 C 68.63 31.20 60.69 22.20 52.60 13.34 C 44.23 22.01 36.46 31.23 28.14 39.95 C 21.07 31.99 13.85 24.17 6.70 16.29 C 4.60 13.93 2.66 11.36 0.00 9.59 L 0.00 0.00 Z" />
<path fill="#fec20a" d=" M 28.15 0.79 C 30.04 3.28 30.17 6.55 31.62 9.26 C 34.65 9.16 37.68 9.18 40.70 9.25 C 38.18 11.05 35.67 12.85 33.17 14.69 C 34.15 17.66 35.17 20.63 35.96 23.67 C 33.42 21.80 30.96 19.81 28.27 18.16 C 25.94 20.01 23.55 21.78 21.05 23.39 C 21.75 20.45 22.75 17.58 23.73 14.72 C 21.23 12.85 18.69 11.04 16.13 9.27 C 19.19 9.18 22.25 9.16 25.31 9.25 C 26.46 6.50 27.27 3.63 28.15 0.79 Z" />
<path fill="#808284" d=" M 0.00 9.59 C 2.66 11.36 4.60 13.93 6.70 16.29 C 13.85 24.17 21.07 31.99 28.14 39.95 C 36.46 31.23 44.23 22.01 52.60 13.34 C 60.69 22.20 68.63 31.20 76.85 39.93 C 82.05 33.95 87.57 28.26 92.76 22.27 C 89.17 22.27 85.58 22.28 81.99 22.30 C 81.84 19.64 81.83 16.98 81.96 14.33 C 89.64 14.31 97.32 14.27 105.00 14.25 L 105.00 40.18 C 102.28 40.51 99.54 40.46 96.81 40.34 C 96.98 36.81 97.04 33.28 96.90 29.75 C 90.05 36.96 83.49 44.42 76.79 51.76 C 68.60 42.95 60.71 33.88 52.45 25.15 C 44.32 33.98 36.34 42.95 28.20 51.77 C 21.43 44.39 14.88 36.80 7.88 29.63 C 7.83 40.77 7.80 51.93 7.87 63.07 C 7.40 65.20 9.50 65.14 10.98 65.15 C 37.00 65.15 63.02 65.08 89.04 65.14 C 91.63 65.08 94.29 65.45 96.83 64.78 C 97.63 58.85 96.88 52.81 97.20 46.83 C 99.80 46.83 102.40 46.82 105.00 46.82 L 105.00 72.93 C 70.00 72.77 35.00 72.91 0.00 72.87 L 0.00 9.59 Z" />
<path fill="#ffffff" d=" M 52.45 25.15 C 60.71 33.88 68.60 42.95 76.79 51.76 C 83.49 44.42 90.05 36.96 96.90 29.75 C 97.04 33.28 96.98 36.81 96.81 40.34 C 99.54 40.46 102.28 40.51 105.00 40.18 L 105.00 46.82 C 102.40 46.82 99.80 46.83 97.20 46.83 C 96.88 52.81 97.63 58.85 96.83 64.78 C 94.29 65.45 91.63 65.08 89.04 65.14 C 63.02 65.08 37.00 65.15 10.98 65.15 C 9.50 65.14 7.40 65.20 7.87 63.07 C 7.80 51.93 7.83 40.77 7.88 29.63 C 14.88 36.80 21.43 44.39 28.20 51.77 C 36.34 42.95 44.32 33.98 52.45 25.15 Z" />
<path fill="#fec20a" d=" M 52.22 31.86 C 55.31 34.03 57.42 37.27 60.10 39.89 C 65.77 45.75 71.13 51.90 76.82 57.74 C 80.22 53.85 83.85 50.18 87.37 46.40 C 89.21 44.45 90.80 42.21 93.11 40.77 C 93.21 47.26 93.22 53.75 93.14 60.24 C 92.89 60.45 92.38 60.89 92.13 61.10 C 66.78 61.25 41.43 61.08 16.08 61.19 C 14.64 61.18 13.20 61.05 11.78 60.80 C 11.90 54.01 11.72 47.23 11.88 40.44 C 17.49 46.04 22.82 51.92 28.18 57.76 C 36.23 49.17 44.32 40.60 52.22 31.86 Z" />
<path fill="#ffffff" d=" M 0.00 72.87 C 35.00 72.91 70.00 72.77 105.00 72.93 L 105.00 101.00 L 0.00 101.00 L 0.00 72.87 Z" />
</svg>
