<?xml version="1.0" encoding="UTF-8" standalone="no"?>
<!-- Created with Inkscape (http://www.inkscape.org/) -->

<svg
   xmlns:dc="http://purl.org/dc/elements/1.1/"
   xmlns:cc="http://creativecommons.org/ns#"
   xmlns:rdf="http://www.w3.org/1999/02/22-rdf-syntax-ns#"
   xmlns:svg="http://www.w3.org/2000/svg"
   xmlns="http://www.w3.org/2000/svg"
   xmlns:sodipodi="http://sodipodi.sourceforge.net/DTD/sodipodi-0.dtd"
   xmlns:inkscape="http://www.inkscape.org/namespaces/inkscape"
   width="210mm"
   height="297mm"
   viewBox="0 0 744.09448819 1052.3622047"
   id="svg2"
   version="1.1"
   inkscape:version="0.91 r13725"
   sodipodi:docname="geoking_transparent.svg">
  <defs
     id="defs4" />
  <sodipodi:namedview
     id="base"
     pagecolor="#ffffff"
     bordercolor="#666666"
     borderopacity="1.0"
     inkscape:pageopacity="0.0"
     inkscape:pageshadow="2"
     inkscape:zoom="0.24748737"
     inkscape:cx="-97.097541"
     inkscape:cy="1211.3415"
     inkscape:document-units="px"
     inkscape:current-layer="g3356"
     showgrid="false"
     inkscape:window-width="1920"
     inkscape:window-height="1018"
     inkscape:window-x="-8"
     inkscape:window-y="-8"
     inkscape:window-maximized="1" />
  <metadata
     id="metadata7">
    <rdf:RDF>
      <cc:Work
         rdf:about="">
        <dc:format>image/svg+xml</dc:format>
        <dc:type
           rdf:resource="http://purl.org/dc/dcmitype/StillImage" />
        <dc:title></dc:title>
      </cc:Work>
    </rdf:RDF>
  </metadata>
  <g
     inkscape:label="Layer 1"
     inkscape:groupmode="layer"
     id="layer1">
    <g
       id="g3356"
       transform="matrix(1.25,0,0,1.25,-868.48214,-519.33422)">
      <path
         id="path3340"
         d="m 855.50554,424.95157 c 10.47906,13.80574 11.19984,31.93617 19.23933,46.9617 16.79976,-0.55445 33.59952,-0.44356 50.34384,-0.0555 -13.97208,9.98006 -27.88871,19.96012 -41.7499,30.16195 5.43359,16.46709 11.08895,32.93418 15.46909,49.78939 -14.08297,-10.36817 -27.72238,-21.40168 -42.63702,-30.55006 -12.91863,10.25728 -26.16992,20.071 -40.03111,28.9976 3.88113,-16.30075 9.42561,-32.2134 14.85919,-48.0706 -13.86118,-10.36816 -27.94415,-20.40366 -42.13801,-30.21739 16.9661,-0.499 33.93219,-0.60989 50.89829,-0.11089 6.37614,-15.2473 10.86717,-31.15995 15.7463,-46.90625 z"
         inkscape:connector-curvature="0"
         style="fill:#fec20a" />
      <path
         id="path3342"
         d="m 699.42857,473.74295 c 14.7483,9.81372 25.50459,24.06302 37.14798,37.14798 39.643,43.69046 79.67411,87.04826 118.87355,131.18228 46.13003,-48.34782 89.21061,-99.46788 135.61786,-147.53848 44.85484,49.12405 88.87794,99.02432 134.45354,147.42759 28.8313,-33.15596 59.4368,-64.70402 88.2126,-97.91543 -19.9047,0 -39.8093,0.0555 -59.714,0.16634 -0.8317,-14.74831 -0.8871,-29.49661 -0.1663,-44.18947 42.5815,-0.11089 85.1631,-0.33267 127.7447,-0.44356 l 0,143.76824 c -15.081,1.82968 -30.2729,1.55245 -45.4093,0.88712 0.9426,-19.572 1.2752,-39.144 0.499,-58.71599 -37.9796,39.97566 -74.3514,81.33745 -111.4994,122.03389 -45.4092,-48.84682 -89.1551,-99.13521 -134.95251,-147.53848 -45.07658,48.95772 -89.32149,98.69166 -134.45352,147.59393 -37.5361,-40.91823 -73.85241,-83.0008 -112.66374,-122.75468 -0.27722,61.76545 -0.44355,123.64179 -0.0554,185.40725 -2.6059,11.80973 9.03749,11.47706 17.24332,11.5325 144.26724,0 288.53449,-0.38811 432.80169,-0.0554 14.3602,-0.33267 29.1085,1.71879 43.1915,-1.99601 4.4356,-32.87874 0.2772,-66.36737 2.0515,-99.52333 14.4156,0 28.8312,-0.0554 43.2469,-0.0554 l 0,144.76624 c -194.0567,-0.88711 -388.1133,-0.11089 -582.16993,-0.33267 l 0,-350.85438 z"
         inkscape:connector-curvature="0"
         style="fill:#808284" />
      <path
         id="path3346"
         d="m 988.96106,597.21841 c 17.13244,12.03151 28.83124,29.99561 43.69044,44.52213 31.4372,32.49063 61.1556,66.58915 92.7036,98.96888 18.8513,-21.568 38.9777,-41.91623 58.4943,-62.87434 10.2018,-10.81173 19.0175,-23.23135 31.8252,-31.2154 0.5545,35.98364 0.6099,71.96729 0.1664,107.95093 -1.3861,1.16434 -4.2138,3.60391 -5.5999,4.76825 -140.5525,0.83167 -281.10493,-0.11089 -421.65737,0.499 -7.98404,-0.0554 -15.96809,-0.77622 -23.84124,-2.16234 0.66533,-37.64699 -0.33267,-75.23853 0.55444,-112.88552 31.10451,31.04907 60.65656,63.65058 90.37495,96.03031 44.63302,-47.62704 89.48783,-95.14319 133.28918,-143.6019 z"
         inkscape:connector-curvature="0"
         style="fill:#fec20a" />
    </g>
  </g>
</svg>
